<svg width="28" height="28" viewBox="0 0 28 28" fill="none" xmlns="http://www.w3.org/2000/svg">
<path fill-rule="evenodd" clip-rule="evenodd" d="M3.66667 7.83333C3.66667 6.17647 5.00981 4.83333 6.66667 4.83333H17.5C18.0523 4.83333 18.5 5.28104 18.5 5.83333V15.1667C18.5 15.7189 18.0523 16.1667 17.5 16.1667H6.66667C5.00981 16.1667 3.66667 14.8235 3.66667 13.1667V7.83333ZM6.66667 6.83333C6.11438 6.83333 5.66667 7.28104 5.66667 7.83333V13.1667C5.66667 13.7189 6.11438 14.1667 6.66667 14.1667H16.5V6.83333H6.66667Z" fill="#1A1A1A"/>
<path fill-rule="evenodd" clip-rule="evenodd" d="M16.8852 6.21162C17.128 6.02211 17.4445 5.955 17.7432 6.02968L22.4099 7.19635C22.855 7.30764 23.1673 7.70763 23.1673 8.16649V9.49983H26.2507C26.8029 9.49983 27.2507 9.94754 27.2507 10.4998C27.2507 11.0521 26.8029 11.4998 26.2507 11.4998H23.1673V12.8332C23.1673 13.292 22.855 13.692 22.4099 13.8033L17.7432 14.97C17.4445 15.0447 17.128 14.9775 16.8852 14.788C16.6425 14.5985 16.5007 14.3078 16.5007 13.9998V6.99983C16.5007 6.69189 16.6425 6.40113 16.8852 6.21162ZM18.5007 8.2806V12.719L21.1673 12.0524V8.94727L18.5007 8.2806Z" fill="#1A1A1A"/>
<path fill-rule="evenodd" clip-rule="evenodd" d="M6.00838 15.0425C6.07093 14.542 6.49633 14.1665 7.00065 14.1665H11.6673C11.9542 14.1665 12.2272 14.2897 12.417 14.5047C12.6068 14.7197 12.6952 15.0059 12.6596 15.2905L11.4929 24.6239C11.4304 25.1243 11.005 25.4998 10.5007 25.4998H5.83399C5.54716 25.4998 5.27413 25.3767 5.08431 25.1616C4.89448 24.9466 4.80613 24.6604 4.84171 24.3758L6.00838 15.0425ZM7.88344 16.1665L6.96677 23.4998H9.61787L10.5345 16.1665H7.88344Z" fill="#1A1A1A"/>
<path fill-rule="evenodd" clip-rule="evenodd" d="M7.16732 24.4998C7.16732 23.9475 7.61504 23.4998 8.16732 23.4998H12.834C13.3863 23.4998 13.834 23.9475 13.834 24.4998C13.834 25.0521 13.3863 25.4998 12.834 25.4998H8.16732C7.61504 25.4998 7.16732 25.0521 7.16732 24.4998Z" fill="#1A1A1A"/>
</svg>
