<svg width="24" height="24" viewBox="0 0 24 24" fill="none" xmlns="http://www.w3.org/2000/svg">
<path fill-rule="evenodd" clip-rule="evenodd" d="M2.45185 11.3656C0.889748 12.9277 0.88975 15.4603 2.45185 17.0224L6.97733 21.5479C8.53943 23.11 11.0721 23.11 12.6342 21.5479L21.4444 12.7377C21.8383 12.3438 22.0501 11.8034 22.0287 11.2467L21.7563 4.16511C21.7162 3.12089 20.8789 2.28361 19.8347 2.24345L12.7531 1.97108C12.1964 1.94967 11.656 2.16145 11.262 2.55539L2.45185 11.3656ZM17.4011 8.16516C18.3952 8.16516 19.2011 7.35927 19.2011 6.36516C19.2011 5.37105 18.3952 4.56516 17.4011 4.56516C16.4069 4.56516 15.6011 5.37105 15.6011 6.36516C15.6011 7.35927 16.4069 8.16516 17.4011 8.16516Z" fill="#512B58"/>
</svg>
