<svg width="28" height="28" viewBox="0 0 28 28" fill="none" xmlns="http://www.w3.org/2000/svg">
<path fill-rule="evenodd" clip-rule="evenodd" d="M3 6C3 5.44772 3.44772 5 4 5H24C24.5523 5 25 5.44772 25 6V24C25 24.5523 24.5523 25 24 25H4C3.44772 25 3 24.5523 3 24V6ZM5 7V23H23V7H5Z" fill="#1A1A1A"/>
<path fill-rule="evenodd" clip-rule="evenodd" d="M24 11L5 11L5 9L24 9V11Z" fill="#1A1A1A"/>
<path fill-rule="evenodd" clip-rule="evenodd" d="M16.2929 14.2929C16.6834 13.9024 17.3166 13.9024 17.7071 14.2929C18.0976 14.6834 18.0976 15.3166 17.7071 15.7071L13.5 19.9142L10.2929 16.7071C9.90237 16.3166 9.90237 15.6834 10.2929 15.2929C10.6834 14.9024 11.3166 14.9024 11.7071 15.2929L13.5 17.0858L16.2929 14.2929Z" fill="#1A1A1A"/>
<path fill-rule="evenodd" clip-rule="evenodd" d="M8 2C8.55228 2 9 2.44772 9 3V5C9 5.55228 8.55228 6 8 6C7.44772 6 7 5.55228 7 5V3C7 2.44772 7.44772 2 8 2Z" fill="#1A1A1A"/>
<path fill-rule="evenodd" clip-rule="evenodd" d="M20 2C20.5523 2 21 2.44772 21 3V5C21 5.55228 20.5523 6 20 6C19.4477 6 19 5.55228 19 5V3C19 2.44772 19.4477 2 20 2Z" fill="#1A1A1A"/>
</svg>
