<svg width="24" height="24" viewBox="0 0 24 24" fill="none" xmlns="http://www.w3.org/2000/svg">
<path d="M18.3639 16.9498C18.7544 17.3404 18.7544 17.9735 18.3639 18.364C17.9733 18.7546 17.3402 18.7546 16.9496 18.364L5.63594 7.05034C5.24542 6.65981 5.24542 6.02665 5.63594 5.63612C6.02647 5.2456 6.65963 5.2456 7.05015 5.63612L18.3639 16.9498Z" fill="#1A1A1A"/>
<path d="M7.05017 18.364C6.65964 18.7546 6.02648 18.7546 5.63595 18.364C5.24543 17.9735 5.24543 17.3404 5.63595 16.9498L16.9497 5.63612C17.3402 5.2456 17.9734 5.2456 18.3639 5.63613C18.7544 6.02665 18.7544 6.65982 18.3639 7.05034L7.05017 18.364Z" fill="#1A1A1A"/>
</svg>
