<svg width="12" height="12" viewBox="0 0 12 12" fill="none" xmlns="http://www.w3.org/2000/svg">
<g clip-path="url(#clip0)">
<path d="M9.53544 1.05034C9.92596 0.659815 10.5591 0.659816 10.9497 1.05034C11.3402 1.44086 11.3402 2.07403 10.9497 2.46455L2.46437 10.9498C2.07385 11.3404 1.44068 11.3404 1.05016 10.9498C0.659632 10.5593 0.659632 9.92614 1.05016 9.53562L9.53544 1.05034Z" fill="#1A1A1A"/>
<path d="M10.9497 9.53562C11.3402 9.92615 11.3402 10.5593 10.9496 10.9498C10.5591 11.3404 9.92596 11.3404 9.53544 10.9498L1.05016 2.46455C0.659632 2.07403 0.659632 1.44086 1.05016 1.05034C1.44068 0.659816 2.07385 0.659815 2.46437 1.05034L10.9497 9.53562Z" fill="#1A1A1A"/>
</g>
<defs>
<clipPath id="clip0">
<rect width="12" height="12" fill="white" transform="translate(12) rotate(90)"/>
</clipPath>
</defs>
</svg>
