<svg width="28" height="28" viewBox="0 0 28 28" fill="none" xmlns="http://www.w3.org/2000/svg">
<path fill-rule="evenodd" clip-rule="evenodd" d="M2 5C2 4.44772 2.44772 4 3 4H17C17.5523 4 18 4.44772 18 5V19C18 19.5523 17.5523 20 17 20H3C2.44772 20 2 19.5523 2 19V5ZM4 6V18H16V6H4Z" fill="#1A1A1A"/>
<path fill-rule="evenodd" clip-rule="evenodd" d="M16 9C16 8.44772 16.4477 8 17 8H21C23.7614 8 26 10.2386 26 13V18C26 18.5523 25.5523 19 25 19H17C16.4477 19 16 18.5523 16 18V9ZM18 10V17H24V13C24 11.3431 22.6569 10 21 10H18Z" fill="#1A1A1A"/>
<path d="M13 20C13 22.2091 11.2091 24 9 24C6.79086 24 5 22.2091 5 20C5 17.7909 6.79086 16 9 16C11.2091 16 13 17.7909 13 20Z" fill="white"/>
<path fill-rule="evenodd" clip-rule="evenodd" d="M9 22C10.1046 22 11 21.1046 11 20C11 18.8954 10.1046 18 9 18C7.89543 18 7 18.8954 7 20C7 21.1046 7.89543 22 9 22ZM9 24C11.2091 24 13 22.2091 13 20C13 17.7909 11.2091 16 9 16C6.79086 16 5 17.7909 5 20C5 22.2091 6.79086 24 9 24Z" fill="#1A1A1A"/>
<path d="M24 20C24 22.2091 22.2091 24 20 24C17.7909 24 16 22.2091 16 20C16 17.7909 17.7909 16 20 16C22.2091 16 24 17.7909 24 20Z" fill="white"/>
<path fill-rule="evenodd" clip-rule="evenodd" d="M20 22C21.1046 22 22 21.1046 22 20C22 18.8954 21.1046 18 20 18C18.8954 18 18 18.8954 18 20C18 21.1046 18.8954 22 20 22ZM20 24C22.2091 24 24 22.2091 24 20C24 17.7909 22.2091 16 20 16C17.7909 16 16 17.7909 16 20C16 22.2091 17.7909 24 20 24Z" fill="#1A1A1A"/>
<path fill-rule="evenodd" clip-rule="evenodd" d="M20 13C20 12.4477 20.4477 12 21 12H24.5C25.0523 12 25.5 12.4477 25.5 13C25.5 13.5523 25.0523 14 24.5 14H21C20.4477 14 20 13.5523 20 13Z" fill="#1A1A1A"/>
</svg>
