<svg width="28" height="29" viewBox="0 0 28 29" fill="none" xmlns="http://www.w3.org/2000/svg">
<path fill-rule="evenodd" clip-rule="evenodd" d="M11.2009 9.9H6.31638L5.46562 6.74003C5.34807 6.30341 4.95216 6 4.5 6H1C0.447715 6 0 6.44772 0 7C0 7.55228 0.447715 8 1 8H3.73362L4.57943 11.1416L6.30128 18.669C6.61327 20.0329 7.82662 21 9.22575 21H18.2171C19.6012 21 20.8057 20.0531 21.1324 18.7082L21.5809 16.8616C21.0677 16.9526 20.5394 17 20 17C19.8297 17 19.6605 16.9953 19.4926 16.9859L19.1889 18.236C19.08 18.6844 18.6785 19 18.2171 19H9.22575C8.75937 19 8.35492 18.6776 8.25093 18.223L6.80457 11.9H11.8866C11.5835 11.2705 11.3514 10.6004 11.2009 9.9ZM21.842 15.7869L22.9717 11.1361C23.0442 10.838 22.9757 10.5231 22.7861 10.282C22.5966 10.0408 22.3068 9.9 22 9.9H12.227C12.3995 10.6083 12.6663 11.2796 13.0134 11.9H20.728L19.7331 15.9956C19.8217 15.9985 19.9107 16 20 16C20.6339 16 21.2506 15.9263 21.842 15.7869Z" fill="#1A1A1A"/>
<path d="M28 8C28 12.4183 24.4183 16 20 16C15.5817 16 12 12.4183 12 8C12 3.58172 15.5817 0 20 0C24.4183 0 28 3.58172 28 8Z" fill="#EE2A74"/>
<path d="M15.6143 6.60547V5.75293C16.0098 5.73535 16.2866 5.70898 16.4448 5.67383C16.6968 5.61816 16.9019 5.50684 17.0601 5.33984C17.1685 5.22559 17.2505 5.07324 17.3062 4.88281C17.3384 4.76855 17.3545 4.68359 17.3545 4.62793H18.396V11H17.1128V6.60547H15.6143ZM21.5601 7.87549C21.5601 8.60791 21.6201 9.16895 21.7402 9.55859C21.8604 9.94531 22.1064 10.1387 22.4785 10.1387C22.8506 10.1387 23.0938 9.94531 23.208 9.55859C23.3252 9.16895 23.3838 8.60791 23.3838 7.87549C23.3838 7.10791 23.3252 6.53955 23.208 6.17041C23.0938 5.80127 22.8506 5.6167 22.4785 5.6167C22.1064 5.6167 21.8604 5.80127 21.7402 6.17041C21.6201 6.53955 21.5601 7.10791 21.5601 7.87549ZM22.4785 4.58398C23.29 4.58398 23.8584 4.86963 24.1836 5.44092C24.5117 6.01221 24.6758 6.82373 24.6758 7.87549C24.6758 8.92725 24.5117 9.7373 24.1836 10.3057C23.8584 10.874 23.29 11.1582 22.4785 11.1582C21.667 11.1582 21.0972 10.874 20.769 10.3057C20.4438 9.7373 20.2812 8.92725 20.2812 7.87549C20.2812 6.82373 20.4438 6.01221 20.769 5.44092C21.0972 4.86963 21.667 4.58398 22.4785 4.58398Z" fill="white"/>
<path d="M10 26.5C10 27.3284 9.32843 28 8.5 28C7.67157 28 7 27.3284 7 26.5C7 25.6716 7.67157 25 8.5 25C9.32843 25 10 25.6716 10 26.5Z" fill="#1A1A1A"/>
<path d="M20 26.5C20 27.3284 19.3284 28 18.5 28C17.6716 28 17 27.3284 17 26.5C17 25.6716 17.6716 25 18.5 25C19.3284 25 20 25.6716 20 26.5Z" fill="#1A1A1A"/>
<path fill-rule="evenodd" clip-rule="evenodd" d="M8.5547 19.168C9.01423 19.4743 9.1384 20.0952 8.83205 20.5547L7.86852 22L20 22C20.5523 22 21 22.4477 21 23C21 23.5523 20.5523 24 20 24H7.86852C6.27113 24 5.31834 22.2197 6.20442 20.8906L7.16795 19.4453C7.4743 18.9858 8.09517 18.8616 8.5547 19.168Z" fill="#1A1A1A"/>
</svg>
