<svg width="24" height="24" viewBox="0 0 24 24" fill="none" xmlns="http://www.w3.org/2000/svg">
<path d="M2.39999 7C2.39999 6.44771 2.84771 6 3.39999 6H20.6C21.1523 6 21.6 6.44772 21.6 7V10.8H2.39999V7Z" fill="#512B58"/>
<path d="M3.60001 12H20.4V20.6C20.4 21.1523 19.9523 21.6 19.4 21.6H4.60001C4.04772 21.6 3.60001 21.1523 3.60001 20.6V12Z" fill="#512B58"/>
<path d="M11.3987 6.59868C11.1428 6.66416 10.792 6.72982 10.3904 6.74171C9.55775 6.76638 8.53543 6.56371 7.62857 5.65685C6.84752 4.87581 6.84752 3.60948 7.62857 2.82843C8.40962 2.04738 9.67595 2.04738 10.457 2.82843C11.3638 3.73527 11.5665 4.7576 11.5418 5.59031C11.5299 5.99189 11.4642 6.34271 11.3987 6.59868Z" stroke="#512B58" stroke-width="2"/>
<path d="M12.5152 6.59868C12.7711 6.66416 13.1219 6.72982 13.5235 6.74171C14.3561 6.76638 15.3785 6.56371 16.2853 5.65685C17.0664 4.87581 17.0664 3.60948 16.2853 2.82843C15.5043 2.04738 14.2379 2.04738 13.4569 2.82843C12.55 3.73527 12.3474 4.7576 12.3721 5.59031C12.384 5.99189 12.4497 6.34271 12.5152 6.59868Z" stroke="#512B58" stroke-width="2"/>
</svg>
