<svg width="28" height="28" viewBox="0 0 28 28" fill="none" xmlns="http://www.w3.org/2000/svg">
<path fill-rule="evenodd" clip-rule="evenodd" d="M14 3.86715L12.135 5.55926C11.5533 6.08699 10.7879 6.36557 10.0031 6.33519L7.48673 6.23779L7.1457 8.73285C7.03933 9.51099 6.63207 10.2164 6.01136 10.6976L4.02109 12.2404L5.36364 14.371C5.78234 15.0354 5.92378 15.8376 5.75759 16.6052L5.2247 19.0664L7.62263 19.8355C8.37048 20.0754 8.99445 20.599 9.36053 21.2938L10.5344 23.5218L12.8657 22.5696C13.5927 22.2726 14.4073 22.2726 15.1343 22.5696L17.4656 23.5218L18.6395 21.2938C19.0056 20.599 19.6295 20.0754 20.3774 19.8355L22.7753 19.0664L22.2424 16.6052C22.0762 15.8376 22.2177 15.0354 22.6364 14.371L23.9789 12.2404L21.9886 10.6976C21.3679 10.2164 20.9607 9.51098 20.8543 8.73284L20.5133 6.23779L17.9969 6.33519C17.2121 6.36557 16.4467 6.08699 15.865 5.55926L14 3.86715ZM14.6719 1.7763C14.2907 1.43044 13.7093 1.43044 13.3281 1.7763L10.7911 4.07805C10.5972 4.25395 10.3421 4.34682 10.0805 4.33669L6.65749 4.20419C6.14316 4.18428 5.69773 4.55804 5.62803 5.06802L5.16412 8.46199C5.12867 8.72137 4.99291 8.95651 4.78601 9.1169L2.07869 11.2156C1.67189 11.531 1.57092 12.1036 1.84533 12.5391L3.67156 15.4372C3.81113 15.6587 3.85828 15.9261 3.80288 16.182L3.078 19.5299C2.96908 20.033 3.25982 20.5366 3.74994 20.6938L7.0118 21.74C7.26108 21.8199 7.46907 21.9945 7.5911 22.2261L9.18784 25.2567C9.42776 25.7121 9.97416 25.911 10.4507 25.7163L13.6219 24.4211C13.8642 24.3221 14.1358 24.3221 14.3781 24.4211L17.5493 25.7163C18.0258 25.911 18.5722 25.7121 18.8122 25.2567L20.4089 22.2261C20.5309 21.9945 20.7389 21.8199 20.9882 21.74L24.2501 20.6938C24.7402 20.5366 25.0309 20.033 24.922 19.5299L24.1971 16.182C24.1417 15.9261 24.1889 15.6587 24.3284 15.4372L26.1547 12.5391C26.4291 12.1036 26.3281 11.531 25.9213 11.2156L23.214 9.1169C23.0071 8.95651 22.8713 8.72137 22.8359 8.46199L22.372 5.06801C22.3023 4.55804 21.8568 4.18428 21.3425 4.20419L17.9195 4.33669C17.6579 4.34682 17.4028 4.25395 17.2089 4.07805L14.6719 1.7763Z" fill="#1A1A1A"/>
<path fill-rule="evenodd" clip-rule="evenodd" d="M16.2929 11.7929C16.6834 11.4024 17.3166 11.4024 17.7071 11.7929C18.0976 12.1834 18.0976 12.8166 17.7071 13.2071L13.5 17.4142L10.2929 14.2071C9.90237 13.8166 9.90237 13.1834 10.2929 12.7929C10.6834 12.4024 11.3166 12.4024 11.7071 12.7929L13.5 14.5858L16.2929 11.7929Z" fill="#1A1A1A"/>
</svg>
