<svg width="28" height="28" viewBox="0 0 28 28" fill="none" xmlns="http://www.w3.org/2000/svg">
<path fill-rule="evenodd" clip-rule="evenodd" d="M0.489944 17.009C0.0994194 16.6185 0.0994194 15.9854 0.489944 15.5948L15.5952 0.489552C15.9857 0.0990283 16.6189 0.099028 17.0094 0.489552C17.4 0.880077 17.4 1.51324 17.0094 1.90377L1.90416 17.009C1.51363 17.3996 0.880468 17.3996 0.489944 17.009ZM10.99 27.5091C10.5995 27.1186 10.5995 26.4855 10.99 26.0949L26.0953 10.9896C26.4858 10.5991 27.119 10.5991 27.5095 10.9896C27.9001 11.3802 27.9001 12.0133 27.5095 12.4039L12.4043 27.5091C12.0137 27.8997 11.3806 27.8997 10.99 27.5091Z" fill="#1A1A1A"/>
<path d="M9.32413 23.8766C9.75749 23.4432 9.75749 22.9342 9.28973 22.4665L7.3121 20.4888L7.33961 20.4613L11.3362 21.0666C11.8245 21.1423 12.1375 21.0632 12.4161 20.7846C12.8495 20.3512 12.8495 19.8766 12.4127 19.4398L8.67409 15.7012C8.20633 15.2335 7.70075 15.23 7.26395 15.6668C6.83059 16.1002 6.83059 16.6092 7.29834 17.077L9.2347 19.0133L9.20719 19.0408L5.26568 18.463C4.77729 18.3942 4.45399 18.4768 4.18915 18.7416C3.74204 19.1887 3.73516 19.6634 4.1754 20.1036L7.91399 23.8422C8.38174 24.31 8.88733 24.3134 9.32413 23.8766Z" fill="#1A1A1A"/>
<path d="M19.864 13.3332C20.3249 12.8723 20.3593 12.3633 19.9707 11.7064L18.3679 8.97551L18.3954 8.948L21.1263 10.5507C21.8038 10.9463 22.2853 10.9119 22.7634 10.4338C23.2174 9.97981 23.2449 9.4983 22.8632 8.82762L20.5141 4.75197C20.3765 4.51122 20.2045 4.27734 20.0773 4.15008C19.6645 3.73736 19.1624 3.76488 18.7084 4.21887C18.3266 4.60064 18.3094 5.03744 18.6603 5.56022L20.7273 8.64533L20.6998 8.67285L17.4324 6.6505C16.9646 6.3616 16.5313 6.39599 16.1736 6.75368C15.8021 7.12514 15.7677 7.5241 16.0704 8.01249L18.0928 11.2799L18.0652 11.3074L14.9801 9.24035C14.4573 8.88953 14.0205 8.90673 13.6388 9.2885C13.1848 9.74249 13.1573 10.2446 13.57 10.6574C13.7007 10.7881 13.9414 10.96 14.1719 11.0942L18.2338 13.4364C18.9182 13.8319 19.3963 13.8009 19.864 13.3332Z" fill="#1A1A1A"/>
<path d="M14.5693 18.4572L16.767 16.2594C17.1591 15.8673 17.2004 15.4065 16.8289 15.035C16.4575 14.6636 15.9897 14.7117 15.6045 15.0969L14.1359 16.5655L13.3414 15.771L14.7515 14.3609C15.1058 14.0066 15.1368 13.5974 14.8031 13.2637C14.4695 12.9301 14.0534 12.968 13.706 13.3153L12.2958 14.7255L11.4979 13.9275L12.9665 12.4589C13.3517 12.0737 13.3999 11.606 13.0284 11.2345C12.657 10.8631 12.1961 10.9043 11.804 11.2964L9.60625 13.4942C9.14194 13.9585 9.15225 14.4985 9.64064 14.9869L13.0766 18.4228C13.565 18.9112 14.1049 18.9215 14.5693 18.4572Z" fill="#1A1A1A"/>
</svg>
