<svg width="28" height="28" viewBox="0 0 28 28" fill="none" xmlns="http://www.w3.org/2000/svg">
<path d="M3.3934 20.3639C1.8313 18.8019 1.8313 16.2692 3.3934 14.7071L14.7071 3.39339C16.2692 1.83129 18.8019 1.83129 20.364 3.39339L24.6066 7.63603C26.1687 9.19812 26.1687 11.7308 24.6066 13.2929L13.2929 24.6066C11.7308 26.1687 9.19814 26.1687 7.63604 24.6066L3.3934 20.3639Z" fill="#27AE60"/>
<path d="M10.2658 22.3926C10.6372 22.0212 10.6372 21.5849 10.2363 21.1839L8.54117 19.4888L8.56475 19.4652L11.9904 19.9841C12.409 20.0489 12.6773 19.9811 12.9161 19.7423C13.2875 19.3709 13.2875 18.964 12.9131 18.5896L9.70859 15.3851C9.30766 14.9842 8.8743 14.9812 8.49989 15.3556C8.12844 15.7271 8.12844 16.1634 8.52937 16.5643L10.1891 18.2241L10.1655 18.2477L6.78708 17.7524C6.36846 17.6934 6.09134 17.7642 5.86434 17.9912C5.48109 18.3744 5.4752 18.7813 5.85255 19.1586L9.05707 22.3631C9.45801 22.7641 9.89137 22.767 10.2658 22.3926Z" fill="white"/>
<path d="M19.3022 13.3565C19.6973 12.9614 19.7268 12.5251 19.3936 11.9621L18.0198 9.62131L18.0434 9.59772L20.3842 10.9715C20.9649 11.3105 21.3777 11.2811 21.7874 10.8713C22.1766 10.4821 22.2002 10.0694 21.8729 9.49454L19.8594 6.00111C19.7415 5.79474 19.5941 5.59428 19.485 5.4852C19.1313 5.13143 18.7008 5.15502 18.3117 5.54416C17.9845 5.87139 17.9697 6.2458 18.2704 6.6939L20.0422 9.3383L20.0186 9.36188L17.218 7.62843C16.817 7.38079 16.4456 7.41027 16.139 7.71687C15.8206 8.03526 15.7911 8.37723 16.0505 8.79586L17.784 11.5965L17.7604 11.6201L15.116 9.84831C14.6679 9.54761 14.2935 9.56235 13.9663 9.88958C13.5771 10.2787 13.5535 10.7091 13.9073 11.0629C14.0193 11.1749 14.2257 11.3223 14.4232 11.4373L17.9049 13.4449C18.4915 13.784 18.9013 13.7574 19.3022 13.3565Z" fill="white"/>
<path d="M14.7627 17.7484L16.6465 15.8646C16.9826 15.5285 17.018 15.1335 16.6996 14.8151C16.3812 14.4967 15.9803 14.538 15.6501 14.8682L14.3913 16.127L13.7103 15.446L14.919 14.2373C15.2226 13.9336 15.2492 13.5828 14.9632 13.2968C14.6773 13.0109 14.3205 13.0433 14.0228 13.3411L12.8141 14.5498L12.1301 13.8658L13.389 12.607C13.7191 12.2768 13.7604 11.8759 13.442 11.5575C13.1236 11.2391 12.7286 11.2745 12.3925 11.6106L10.5087 13.4944C10.1107 13.8923 10.1196 14.3552 10.5382 14.7738L13.4833 17.7189C13.9019 18.1375 14.3648 18.1464 14.7627 17.7484Z" fill="white"/>
</svg>
