<svg width="24" height="24" viewBox="0 0 24 24" fill="none" xmlns="http://www.w3.org/2000/svg">
<path d="M11.185 1.14615C11.5837 0.585477 12.4163 0.585477 12.815 1.14615L16.2462 5.97169C16.378 6.15706 16.5691 6.29196 16.7879 6.35413L22.5539 7.99237C23.2411 8.18764 23.5078 9.0198 23.0621 9.57818L19.4285 14.1299C19.281 14.3147 19.2037 14.5459 19.2104 14.7823L19.3753 20.5577C19.3952 21.2556 18.7119 21.7585 18.0514 21.5322L12.3242 19.5692C12.1141 19.4972 11.8859 19.4972 11.6758 19.5692L5.94857 21.5322C5.2881 21.7585 4.60483 21.2556 4.62475 20.5577L4.78955 14.7823C4.7963 14.5459 4.71903 14.3147 4.57148 14.1299L0.937927 9.57818C0.492185 9.01981 0.758875 8.18764 1.44614 7.99237L7.21212 6.35413C7.43092 6.29196 7.62199 6.15706 7.7538 5.97169L11.185 1.14615Z" fill="#EE2A74"/>
<rect x="9" y="9" width="6" height="6" rx="3" fill="white"/>
</svg>
