<svg width="24" height="24" viewBox="0 0 24 24" fill="none" xmlns="http://www.w3.org/2000/svg">
<path d="M11.2594 1.67917C11.6795 1.29806 12.3202 1.29806 12.7403 1.67917L14.6816 3.44047C14.8952 3.63431 15.1764 3.73664 15.4646 3.72548L18.0839 3.62409C18.6507 3.60215 19.1415 4.01401 19.2183 4.57596L19.5733 7.17304C19.6123 7.45886 19.7619 7.71796 19.9899 7.8947L22.0616 9.50067C22.5098 9.84816 22.6211 10.4792 22.3187 10.959L20.9213 13.1767C20.7675 13.4207 20.7155 13.7154 20.7766 13.9973L21.3313 16.5592C21.4513 17.1135 21.1309 17.6684 20.5908 17.8416L18.0949 18.6422C17.8202 18.7303 17.591 18.9226 17.4565 19.1778L16.2347 21.4969C15.9703 21.9987 15.3682 22.2178 14.8431 22.0034L12.4165 21.0123C12.1495 20.9032 11.8503 20.9032 11.5832 21.0123L9.15658 22.0034C8.63151 22.2178 8.02941 21.9987 7.76503 21.4969L6.54321 19.1778C6.40874 18.9226 6.17955 18.7303 5.90486 18.6422L3.40888 17.8416C2.8688 17.6684 2.54843 17.1135 2.66845 16.5592L3.22313 13.9973C3.28418 13.7154 3.23222 13.4207 3.07843 13.1767L1.68099 10.959C1.37862 10.4792 1.48988 9.84816 1.93814 9.50067L4.00979 7.8947C4.23778 7.71796 4.38737 7.45886 4.42644 7.17304L4.78142 4.57596C4.85823 4.01401 5.34906 3.60215 5.91582 3.62409L8.53508 3.72548C8.82334 3.73664 9.10448 3.63431 9.31813 3.44047L11.2594 1.67917Z" fill="#27AE60"/>
<path d="M11 7C11 6.44772 11.4477 6 12 6C12.5523 6 13 6.44772 13 7V11C13 11.5523 12.5523 12 12 12C11.4477 12 11 11.5523 11 11V7Z" fill="white"/>
<path d="M10.5 15.5C10.5 14.6716 11.1716 14 12 14C12.8284 14 13.5 14.6716 13.5 15.5C13.5 16.3284 12.8284 17 12 17C11.1716 17 10.5 16.3284 10.5 15.5Z" fill="white"/>
</svg>
