<svg width="28" height="28" viewBox="0 0 28 28" fill="none" xmlns="http://www.w3.org/2000/svg">
<path d="M1.9464 15.4136C1.55587 15.0231 1.55587 14.39 1.9464 13.9994L13.9786 1.96723L13.2845 1.27314L13.9786 1.96723C14.1916 1.75422 14.4893 1.64858 14.7889 1.67968L24.3458 2.6716C24.8164 2.72045 25.1884 3.09242 25.2372 3.56302L26.2291 13.1199C26.2602 13.4195 26.1546 13.7172 25.9416 13.9302L13.9094 25.9624C13.5188 26.3529 12.8857 26.3529 12.4952 25.9624L1.9464 15.4136Z" stroke="#1A1A1A" stroke-width="2"/>
<rect x="18.1742" y="8.21826" width="2.00205" height="11.1225" rx="1.00102" transform="rotate(45 18.1742 8.21826)" fill="#1A1A1A"/>
<circle cx="17.8093" cy="15.7178" r="1.66837" fill="#1A1A1A"/>
<circle cx="12.248" cy="10.1565" r="1.66837" fill="#1A1A1A"/>
</svg>
