<svg width="26" height="26" viewBox="0 0 26 26" fill="none" xmlns="http://www.w3.org/2000/svg">
<path d="M1.41421 16.9132C0.633165 16.1322 0.633165 14.8659 1.41421 14.0848L10.5314 4.9676C10.9511 4.54789 11.5356 4.33629 12.1267 4.39003L19.0057 5.01539C19.9672 5.1028 20.729 5.8646 20.8164 6.8261L21.4417 13.7051C21.4955 14.2962 21.2839 14.8806 20.8642 15.3003L11.747 24.4176C10.9659 25.1986 9.69958 25.1986 8.91853 24.4176L1.41421 16.9132Z" fill="#27AE60"/>
<path d="M14.192 10.3937C14.5434 10.0422 15.1133 10.0422 15.4648 10.3937C15.8162 10.7452 15.8162 11.315 15.4648 11.6665L9.66649 17.4648C9.31502 17.8163 8.74517 17.8163 8.3937 17.4648C8.04223 17.1133 8.04223 16.5435 8.3937 16.192L14.192 10.3937Z" fill="white"/>
<path d="M16 16.5C16 17.3284 15.3284 18 14.5 18C13.6716 18 13 17.3284 13 16.5C13 15.6716 13.6716 15 14.5 15C15.3284 15 16 15.6716 16 16.5Z" fill="white"/>
<path d="M11 11.5C11 12.3284 10.3284 13 9.5 13C8.67157 13 8 12.3284 8 11.5C8 10.6716 8.67157 10 9.5 10C10.3284 10 11 10.6716 11 11.5Z" fill="white"/>
</svg>
