<svg width="20" height="20" viewBox="0 0 20 20" fill="none" xmlns="http://www.w3.org/2000/svg">
<path fill-rule="evenodd" clip-rule="evenodd" d="M8.5 15C12.0899 15 15 12.0899 15 8.5C15 4.91015 12.0899 2 8.5 2C4.91015 2 2 4.91015 2 8.5C2 12.0899 4.91015 15 8.5 15ZM8.5 17C13.1944 17 17 13.1944 17 8.5C17 3.80558 13.1944 0 8.5 0C3.80558 0 0 3.80558 0 8.5C0 13.1944 3.80558 17 8.5 17Z" fill="black"/>
<path fill-rule="evenodd" clip-rule="evenodd" d="M15.7071 15.2929C16.0976 14.9024 16.7308 14.9024 17.1213 15.2929L19.7071 17.8787C20.0976 18.2692 20.0976 18.9024 19.7071 19.2929C19.3166 19.6834 18.6834 19.6834 18.2929 19.2929L15.7071 16.7071C15.3166 16.3166 15.3166 15.6834 15.7071 15.2929Z" fill="black"/>
</svg>
