<svg width="24" height="24" viewBox="0 0 24 24" fill="none" xmlns="http://www.w3.org/2000/svg">
<path fill-rule="evenodd" clip-rule="evenodd" d="M16.6567 14.9523C17.0472 15.3428 17.0472 15.976 16.6567 16.3665L11.9999 21.0233L7.34316 16.3665C6.95264 15.976 6.95264 15.3428 7.34316 14.9523C7.73368 14.5618 8.36685 14.5618 8.75737 14.9523L11.9999 18.1948L15.2424 14.9523C15.633 14.5618 16.2661 14.5618 16.6567 14.9523Z" fill="#1A1A1A"/>
<path fill-rule="evenodd" clip-rule="evenodd" d="M16.6566 9.05092C17.0471 8.66039 17.0471 8.02723 16.6566 7.6367L11.9998 2.97995L7.3431 7.63671C6.95257 8.02723 6.95257 8.66039 7.3431 9.05092C7.73362 9.44144 8.36679 9.44144 8.75731 9.05092L11.9998 5.80838L15.2424 9.05092C15.6329 9.44144 16.2661 9.44144 16.6566 9.05092Z" fill="#1A1A1A"/>
</svg>
